<svg xmlns="http://www.w3.org/2000/svg" viewBox="0 0 100 100">
    <title>Sprout SEO for Solspace Calendar</title>
    <path
        d="M100,50A50,50,0,1,1,50,0,50,50,0,0,1,100,50ZM71.85,45.5a5.58,5.58,0,0,0-5.41,4.19l-9.31.15a10.71,10.71,0,0,0-2.7-5.21l10.1-12.57a6.52,6.52,0,0,0,2.82.64,6.6,6.6,0,1,0-5.17-2.5L52.1,42.75a10.69,10.69,0,0,0-10.29-.44l-5.15-7.73a5.6,5.6,0,1,0-4.31,2,5.35,5.35,0,0,0,1.84-.32L39.33,44a10.77,10.77,0,0,0-1.71,14.08l-4.87,4.7a6.6,6.6,0,1,0,3,5.53,6.49,6.49,0,0,0-.93-3.36l4.82-4.65a10.79,10.79,0,0,0,12.07,1.2l5.39,7.95A6.59,6.59,0,1,0,62,67.3a6.5,6.5,0,0,0-2.38.45l-5.45-8.06a10.74,10.74,0,0,0,3.19-6.86l9.17-.14a5.6,5.6,0,1,0,5.37-7.19Z"
        style="fill:#9074b4"/>
</svg>